<svg width="40" height="40" viewBox="0 0 40 40" fill="none" xmlns="http://www.w3.org/2000/svg">
<path d="M0 0V40H40V0H0ZM1.66625 1.70908H38.3325V38.2896H1.66625V1.70908ZM13.8738 22.6515L12.5525 27.7736C12.5263 27.921 12.4738 27.9467 12.3113 27.9467H9.86375C9.695 27.9467 9.66875 27.8928 9.695 27.6992L14.4275 10.6981C14.5125 10.3904 14.5638 10.1173 14.59 9.26854C14.59 9.15443 14.6487 9.10187 14.7337 9.10187H18.2238C18.335 9.10187 18.3925 9.12879 18.4188 9.26854L23.725 27.7261C23.7575 27.8659 23.725 27.9467 23.5888 27.9467H20.8413C20.6975 27.9467 20.62 27.9133 20.5938 27.7992L19.2138 22.6502H13.8688L13.8738 22.6515ZM18.5225 19.8731C18.0538 17.9832 16.9538 13.8432 16.5438 11.8392H16.5112C16.16 13.8355 15.2738 17.2216 14.5913 19.8731H18.5225ZM26.0225 10.3712C26.0225 9.26982 26.765 8.62107 27.7288 8.62107C28.745 8.62107 29.435 9.3288 29.435 10.3712C29.435 11.4995 28.7188 12.1213 27.6962 12.1213C26.7 12.1213 26.0163 11.5007 26.0163 10.3712H26.0225ZM26.2113 14.2573C26.2113 14.124 26.2638 14.0701 26.4 14.0701H29.0175C29.1675 14.0701 29.2188 14.124 29.2188 14.2701V27.7659C29.2188 27.9056 29.1925 27.9595 29.0238 27.9595H26.445C26.2763 27.9595 26.2238 27.8787 26.2238 27.739V14.256L26.2113 14.2573Z" fill="black"/>
</svg>
