<svg width="40" height="40" viewBox="0 0 40 40" fill="none" xmlns="http://www.w3.org/2000/svg">
<path d="M14.9688 5.33398H18.1913V6.68148H16.3163V8.02898H18.1913V9.37648H14.9688V5.33398ZM18.835 5.33398H22.0588V6.50648H20.1838V6.74023H22.0588V9.43523H18.835V8.20523H20.71V7.97023H18.835V5.33398ZM22.7037 5.33398H25.925V6.50648H24.05V6.74023H25.925V9.43523H22.7037V8.20523H24.5787V7.97023H22.7037V5.33398Z" fill="black"/>
<path fill-rule="evenodd" clip-rule="evenodd" d="M20.5708 35.3362L11.8908 32.9262L9.33203 11.2324H31.832L29.2745 32.9237L20.5708 35.3362ZM14.3908 21.0524L14.6295 23.7124H23.8508L23.542 27.1624L20.5745 27.9649H20.572L17.6095 27.1649L17.4195 25.0437H14.7483L15.1208 29.2212L20.5708 30.7337L26.0295 29.2212L26.6945 21.7662L26.7595 21.0524L27.2395 15.6662H13.912L14.1545 18.3274H24.3245L24.082 21.0524H14.3908Z" fill="black"/>
<path fill-rule="evenodd" clip-rule="evenodd" d="M38.25 1.75H1.75V38.25H38.25V1.75ZM0 0V40H40V0H0Z" fill="black"/>
</svg>
