<svg width="40" height="40" viewBox="0 0 40 40" fill="none" xmlns="http://www.w3.org/2000/svg">
<path fill-rule="evenodd" clip-rule="evenodd" d="M19.7578 6.35V6.25H21.7578V6.35H25.1328C26.5602 6.35 27.928 6.92032 28.9355 7.93364C29.9429 8.94677 30.5078 10.3197 30.5078 11.75C30.5078 13.1803 29.9429 14.5532 28.9355 15.5664C28.7219 15.7812 28.492 15.9762 28.2488 16.15C28.492 16.3238 28.7219 16.5188 28.9355 16.7336C29.9429 17.7468 30.5078 19.1197 30.5078 20.55C30.5078 21.9803 29.9429 23.3532 28.9355 24.3664C27.928 25.3797 26.5602 25.95 25.1328 25.95C23.8984 25.95 22.7086 25.5235 21.7578 24.7528V29.35C21.7578 30.4168 21.4433 31.46 20.8534 32.3479C20.2635 33.2358 19.4244 33.9288 18.4416 34.3382C17.4587 34.7476 16.3769 34.8548 15.3331 34.646C14.2894 34.4372 13.3314 33.922 12.5801 33.1664C11.8288 32.4108 11.3178 31.4488 11.1109 30.4024C10.9039 29.356 11.0101 28.2714 11.4162 27.2854C11.8026 26.3473 12.4441 25.538 13.2668 24.95C13.0236 24.7762 12.7938 24.5812 12.5801 24.3664C11.5727 23.3532 11.0078 21.9803 11.0078 20.55C11.0078 19.1197 11.5727 17.7468 12.5801 16.7336C12.7938 16.5188 13.0236 16.3238 13.2668 16.15C13.0236 15.9762 12.7938 15.7812 12.5801 15.5664C11.5727 14.5532 11.0078 13.1803 11.0078 11.75C11.0078 10.3197 11.5727 8.94677 12.5801 7.93364C13.5877 6.92032 14.9554 6.35 16.3828 6.35H19.7578ZM19.7578 8.35H16.3828C15.4896 8.35 14.6317 8.70682 13.9983 9.34382C13.3648 9.98101 13.0078 10.8464 13.0078 11.75C13.0078 12.6536 13.3648 13.519 13.9983 14.1562C14.6317 14.7932 15.4896 15.15 16.3828 15.15H19.7578V8.35ZM19.7578 17.15H16.3828C15.4896 17.15 14.6317 17.5068 13.9983 18.1438C13.3648 18.781 13.0078 19.6464 13.0078 20.55C13.0078 21.4536 13.3648 22.319 13.9983 22.9562C14.6317 23.5932 15.4896 23.95 16.3828 23.95H19.7578V17.15ZM25.1328 15.15C26.0261 15.15 26.8839 14.7932 27.5173 14.1562C28.1509 13.519 28.5078 12.6536 28.5078 11.75C28.5078 10.8464 28.1509 9.98101 27.5173 9.34382C26.8839 8.70682 26.0261 8.35 25.1328 8.35H21.7578V15.15H25.1328ZM19.7578 25.95H16.3828C15.7166 25.95 15.0648 26.1487 14.51 26.5215C13.955 26.8945 13.5216 27.4251 13.2655 28.047C13.0093 28.669 12.9422 29.3537 13.0729 30.0144C13.2035 30.675 13.5259 31.281 13.9983 31.7562C14.4707 32.2313 15.0719 32.5541 15.7255 32.6849C16.379 32.8156 17.0565 32.7486 17.6725 32.492C18.2886 32.2353 18.816 31.8003 19.1876 31.2411C19.5591 30.6818 19.7578 30.0237 19.7578 29.35V25.95ZM21.7578 20.55C21.7578 21.4536 22.1148 22.319 22.7483 22.9562C23.3817 23.5932 24.2396 23.95 25.1328 23.95C26.0261 23.95 26.8839 23.5932 27.5173 22.9562C28.1509 22.319 28.5078 21.4536 28.5078 20.55C28.5078 19.6464 28.1509 18.781 27.5173 18.1438C26.8839 17.5068 26.0261 17.15 25.1328 17.15C24.2396 17.15 23.3817 17.5068 22.7483 18.1438C22.1148 18.781 21.7578 19.6464 21.7578 20.55Z" fill="black" stroke="black" stroke-width="0.2"/>
<path fill-rule="evenodd" clip-rule="evenodd" d="M38.25 1.75H1.75V38.25H38.25V1.75ZM0 0V40H40V0H0Z" fill="black"/>
</svg>
