<svg width="40" height="40" viewBox="0 0 40 40" fill="none" xmlns="http://www.w3.org/2000/svg">
<mask id="mask0_449_3251" style="mask-type:luminance" maskUnits="userSpaceOnUse" x="5" y="5" width="30" height="30">
<path d="M5 5H35V35H5V5Z" fill="white"/>
</mask>
<g mask="url(#mask0_449_3251)">
<path d="M11.3477 5H12.7002V6.33625H13.9377V5H15.2902V9.045H13.9377V7.69125H12.7002V9.045H11.3489L11.3477 5ZM17.0677 6.34125H15.8777V5H19.6114V6.34125H18.4202V9.045H17.0677V6.34125ZM20.2039 5H21.6139L22.4814 6.42125L23.3477 5H24.7577V9.045H23.4114V7.04L22.4814 8.47875H22.4577L21.5264 7.04125V9.045H20.2039V5ZM25.4302 5H26.7839V7.70875H28.6839V9.04625H25.4302V5Z" fill="black"/>
<path fill-rule="evenodd" clip-rule="evenodd" d="M11.3075 32.5883L8.75 10.8945H31.25L28.6912 32.5858L19.9875 34.9983L11.3075 32.5883ZM16.4787 20.7133L16.2363 17.9883H26.4175L26.655 15.3283H13.33L14.0475 23.3745H23.2687L22.96 26.8245L19.9925 27.627H19.99L17.0275 26.827L16.8375 24.7058H14.165L14.5375 28.8833L19.9875 30.3958L25.4463 28.8833L26.1112 21.4283L26.1763 20.7145L16.4787 20.7133Z" fill="black"/>
</g>
<path fill-rule="evenodd" clip-rule="evenodd" d="M38.25 1.75H1.75V38.25H38.25V1.75ZM0 0V40H40V0H0Z" fill="black"/>
</svg>
