<svg width="40" height="40" viewBox="0 0 40 40" fill="none" xmlns="http://www.w3.org/2000/svg">
<path fill-rule="evenodd" clip-rule="evenodd" d="M38.25 1.75H1.75V38.25H38.25V1.75ZM0 0V40H40V0H0Z" fill="black"/>
<path d="M15.8322 23.9179L15.8823 23.9429L15.9717 23.987C16.0857 24.0429 16.2008 24.0973 16.317 24.1505L16.39 24.1837C16.5233 24.2434 16.6576 24.3006 16.7931 24.3551L16.8913 24.3945C17.0169 24.4446 17.1436 24.4927 17.2714 24.5388L17.3192 24.5555C17.4593 24.6055 17.6006 24.652 17.7433 24.6974L17.8459 24.7285C17.9909 24.7735 18.1341 24.8269 18.2838 24.8553C27.782 26.6267 30.5408 19.0172 30.5408 19.0172C28.2235 22.1049 24.1105 22.9195 20.2134 22.0127C20.0658 21.9786 19.9223 21.9313 19.7784 21.8877L19.67 21.8543C19.5297 21.8102 19.39 21.7638 19.2512 21.715L19.1937 21.6937C19.07 21.6489 18.9469 21.6022 18.8245 21.5537L18.7211 21.5122C18.5872 21.4583 18.4543 21.4018 18.3225 21.3426L18.2427 21.3065C18.13 21.2545 18.0179 21.2012 17.9065 21.1465L17.809 21.0987C17.7217 21.0551 17.6352 21.0086 17.5489 20.9631L17.3754 20.8701C17.2705 20.8124 17.1666 20.7528 17.0638 20.6913L16.9586 20.6312C16.8219 20.5485 16.6865 20.4636 16.5524 20.3766L16.443 20.3022C16.3457 20.2383 16.2494 20.1728 16.1541 20.1058L16.0611 20.0388C15.9693 19.9723 15.8782 19.905 15.788 19.8368L15.6669 19.743C15.584 19.6785 15.5019 19.6129 15.4206 19.5463L15.3107 19.456C15.2072 19.3691 15.1048 19.281 15.0035 19.1915L14.97 19.1626C14.8606 19.0646 14.7529 18.9647 14.6468 18.863L14.5558 18.7735C14.4772 18.6973 14.3998 18.6199 14.3238 18.5412L14.2328 18.4482C14.1364 18.3471 14.0415 18.2445 13.9483 18.1404L13.9343 18.125C13.836 18.0149 13.7397 17.9029 13.6456 17.7891L13.57 17.6971C13.4996 17.6106 13.4304 17.5231 13.3624 17.4345L13.2862 17.3378C13.2047 17.2301 13.1248 17.1212 13.0464 17.0112C10.8829 13.9926 10.1055 9.8293 11.8347 6.41019L10.3019 8.39867C8.3378 11.2857 8.58257 15.0421 10.0826 18.1101L10.1925 18.3283L10.263 18.4665L10.3066 18.546L10.3848 18.6892C10.4313 18.7732 10.4789 18.8568 10.5277 18.9401L10.6096 19.078C10.6636 19.1672 10.7191 19.2557 10.7759 19.3438L10.8466 19.456C10.9247 19.5754 11.0049 19.6937 11.0872 19.811L11.0942 19.8203L11.1347 19.8764C11.2065 19.977 11.2796 20.0765 11.354 20.1749L11.4367 20.2822C11.503 20.3676 11.5706 20.4526 11.6393 20.5371L11.7168 20.6315C11.8089 20.7431 11.9031 20.8531 11.9992 20.9615L12.0049 20.9676L12.0159 20.9799C12.1094 21.0846 12.2055 21.1866 12.3027 21.2892L12.3947 21.3841C12.4701 21.4615 12.5465 21.5382 12.6239 21.614L12.7177 21.7052C12.8206 21.8046 12.9252 21.9021 13.0316 21.9978L13.0368 22.0018L13.0913 22.0496C13.1854 22.1329 13.2806 22.2151 13.3769 22.2962L13.4951 22.3924C13.5736 22.4567 13.6529 22.5202 13.7332 22.5827L13.8602 22.6816C13.9486 22.748 14.0375 22.8133 14.1271 22.8775L14.2245 22.9482L14.2513 22.9676C14.3365 23.0276 14.4236 23.085 14.5106 23.1427L14.6229 23.2192C14.7562 23.3061 14.8915 23.3907 15.0287 23.4733L15.141 23.5382C15.2414 23.5975 15.343 23.6556 15.4455 23.7125L15.6139 23.8018L15.8322 23.9179ZM16.7918 14.139C17.0046 14.451 17.2402 14.822 17.5227 15.0729C17.6251 15.1883 17.7321 15.3004 17.8413 15.4112L17.9254 15.4957C18.0315 15.6012 18.1399 15.7043 18.2508 15.8051L18.2643 15.8168L18.2674 15.8202C18.3908 15.9308 18.5181 16.0371 18.6475 16.1418L18.7341 16.2109C18.864 16.3127 18.9963 16.4126 19.1319 16.5081L19.1436 16.5168L19.325 16.6391L19.4112 16.6976C19.5081 16.7608 19.6061 16.823 19.7061 16.882L19.7477 16.9067C19.834 16.9576 19.9209 17.0073 20.0083 17.0558L20.1008 17.1055L20.2833 17.202L20.3108 17.2147C20.4359 17.2778 20.5627 17.3382 20.6912 17.396L20.7751 17.4313C20.8782 17.4763 20.9821 17.5195 21.0867 17.5608L21.2202 17.6107C21.3153 17.6469 21.4104 17.6798 21.5066 17.7125L21.6362 17.755C21.7729 17.7984 21.9078 17.8531 22.0502 17.8773C29.3834 19.1203 31.0766 13.3449 31.0766 13.3449C29.5503 15.593 26.5948 16.6654 23.4408 15.8282C23.3015 15.7908 23.163 15.7498 23.0256 15.7054L22.9006 15.6642C22.8031 15.632 22.7063 15.5979 22.6101 15.5619L22.4792 15.512C22.3742 15.4707 22.2699 15.4278 22.1663 15.3831L22.0821 15.3464C21.9532 15.289 21.8256 15.2283 21.6996 15.1643L21.5076 15.0644L21.3969 15.0062C21.3153 14.9607 21.2344 14.914 21.1542 14.8661L21.0963 14.8324C20.9972 14.7732 20.8991 14.7122 20.8022 14.6493L20.7135 14.5884L20.5233 14.4598C20.3889 14.3644 20.2567 14.2656 20.1271 14.1635L20.038 14.0914C18.6574 12.9771 17.5632 11.4531 17.0428 9.72539C16.4976 7.93411 16.6151 5.92278 17.5596 4.29069L16.3991 5.96663C14.9788 8.05689 15.056 10.8557 16.164 13.0666C16.3495 13.4381 16.5592 13.7963 16.7918 14.139ZM24.5213 11.5528L24.7034 11.6174L24.7837 11.6434C24.8702 11.6711 24.9557 11.7035 25.0449 11.7205C29.094 12.5207 30.1926 9.59516 30.4849 9.16462C29.5227 10.5814 27.906 10.9213 25.9221 10.4289C25.7596 10.3867 25.5993 10.3362 25.4419 10.2774C25.248 10.2069 25.0578 10.1261 24.8721 10.0355C24.5195 9.86203 24.1848 9.65308 23.8727 9.41178C22.0975 8.03377 20.9947 5.40612 22.1531 3.26562L21.5263 4.14904C20.6891 5.40958 20.6068 6.97495 21.1878 8.36651C21.8005 9.84419 23.056 11.0029 24.5213 11.5528ZM20.6127 28.5091H19.5146C19.4836 28.5105 19.4538 28.522 19.4297 28.5419C19.4055 28.5619 19.3882 28.5892 19.3803 28.6199L18.9905 30.4643L18.6008 32.3088C18.5931 32.3396 18.5759 32.367 18.5517 32.387C18.5276 32.407 18.4977 32.4184 18.4667 32.4196H17.6895C16.9206 32.4196 17.0095 31.8756 17.167 31.1304L17.1716 31.1078L17.1888 31.0137L17.1919 30.9961L17.227 30.8048L17.2647 30.5999L17.3047 30.3913L17.4819 29.5057L17.6594 28.6202C17.6628 28.6067 17.663 28.5925 17.6601 28.5789C17.6571 28.5652 17.6511 28.5525 17.6425 28.5417C17.6339 28.5308 17.6229 28.5222 17.6104 28.5165C17.598 28.5108 17.5844 28.5082 17.5708 28.5088H16.4438C16.4128 28.51 16.383 28.5214 16.3589 28.5415C16.3348 28.5615 16.3177 28.5891 16.3103 28.6199L16.0678 29.7957L15.8257 30.9717L15.8251 30.9733L15.8028 31.0828C15.5237 32.3858 15.5975 33.6288 17.1145 33.6679L17.1587 33.6687H19.5396C19.5706 33.6675 19.6005 33.6561 19.6246 33.6361C19.6488 33.6161 19.666 33.5887 19.6737 33.5579L20.1871 31.0892L20.7006 28.6202C20.7133 28.5591 20.6738 28.5094 20.6127 28.5091ZM8.85332 28.4961H7.64766C7.61649 28.4972 7.5865 28.5086 7.56213 28.5285C7.53775 28.5484 7.52028 28.5758 7.51228 28.6066L7.39795 29.1227L7.28362 29.6389C7.27037 29.6997 7.30908 29.7494 7.37015 29.7494H8.58517C8.61623 29.7481 8.64607 29.7366 8.67029 29.7167C8.69451 29.6967 8.71185 29.6694 8.71976 29.6386L8.8302 29.1227L8.94063 28.6069C8.95336 28.546 8.91439 28.4961 8.85332 28.4961ZM8.50358 30.1024H7.28829C7.25712 30.1035 7.22714 30.1149 7.20277 30.1348C7.17839 30.1547 7.16092 30.1821 7.15292 30.2129L6.9822 30.9863L6.81174 31.7594L6.76419 31.9811L6.60023 32.7704L6.43653 33.56C6.4238 33.6209 6.39756 33.7192 6.37807 33.7782C6.37807 33.7782 6.15097 34.4692 5.76926 34.4612L5.72145 34.4602L5.39119 34.4541C5.36019 34.4549 5.33 34.4658 5.3055 34.4853C5.28101 34.5048 5.26323 34.5317 5.25477 34.5622L5.12875 35.1041L5.00299 35.6458C4.98869 35.7064 5.02715 35.7563 5.08769 35.7574C5.30414 35.76 5.78901 35.7656 6.08237 35.7656C7.03573 35.7656 7.53852 35.2253 7.86047 33.6706L8.2375 31.8862L8.59114 30.2127C8.60387 30.1523 8.56438 30.1024 8.50358 30.1024ZM30.8804 29.6841L30.83 29.4712L30.7803 29.2532L30.7551 29.1432C30.6564 28.7507 30.3667 28.5245 29.7373 28.5245L28.7577 28.5234L27.8556 28.5221H26.8404C26.8093 28.5232 26.7794 28.5346 26.7553 28.5546C26.7312 28.5746 26.714 28.6021 26.7065 28.6329L26.6616 28.8498L26.6086 29.106L26.5938 29.178L26.1367 31.368L25.7028 33.4468C25.6898 33.5079 25.6856 33.5829 25.6929 33.6132C25.7002 33.6437 25.8174 33.6687 25.8782 33.6687H26.7938C26.8549 33.6687 26.9321 33.6576 26.9653 33.6437C26.9986 33.6299 27.0477 33.5074 27.0599 33.4465L27.2226 32.6229L27.3855 31.799L27.3858 31.7977L27.4076 31.6879L27.6051 30.7418L27.7794 29.9062C27.7871 29.8755 27.8043 29.8481 27.8284 29.8282C27.8525 29.8082 27.8823 29.7967 27.9132 29.7954L30.7946 29.7941C30.8557 29.7946 30.8942 29.7449 30.8804 29.6841ZM34.5896 27.7599L34.3677 27.7607H33.4455C33.4117 27.7626 33.3787 27.7719 33.3488 27.7881C33.3189 27.8043 33.2928 27.827 33.2722 27.8545L31.2327 30.9103C31.1984 30.9619 31.1592 30.9544 31.1457 30.8938L30.9955 30.2206C30.9875 30.1898 30.97 30.1623 30.9455 30.1424C30.9211 30.1225 30.8911 30.1112 30.8599 30.1101H29.549C29.4879 30.1101 29.4518 30.159 29.4684 30.2188L30.0559 32.3239C30.0725 32.384 30.0738 32.4823 30.0588 32.5429L29.8028 33.5616C29.7875 33.6222 29.8249 33.6714 29.886 33.6714H31.1818C31.2131 33.6701 31.2433 33.6588 31.2681 33.6391C31.2929 33.6194 31.311 33.5923 31.32 33.5616L31.5762 32.5429C31.5964 32.4711 31.6283 32.4032 31.6706 32.3423L34.9815 27.8479C35.0184 27.7979 34.9984 27.7572 34.9376 27.7578L34.5896 27.7599ZM24.1736 30.396V30.395C24.1691 30.4271 24.1536 30.4565 24.1298 30.478C24.1061 30.4994 24.0756 30.5116 24.0439 30.5122H22.3817C22.324 30.5122 22.2949 30.4723 22.3035 30.4229L22.3051 30.4189L22.304 30.4194L22.3048 30.4139L22.3124 30.3849C22.4711 29.9533 22.7944 29.67 23.4021 29.67C24.0866 29.6697 24.2201 30.0115 24.1736 30.396ZM23.6859 28.4336C21.5523 28.4336 21.0467 29.7582 20.7629 31.0953C20.4794 32.4581 20.5036 33.732 22.7117 33.732H22.9794L23.0459 33.7317H23.0615L23.3265 33.7309H23.3312C23.9143 33.7285 24.4992 33.724 24.7359 33.7221C24.7668 33.7207 24.7964 33.709 24.8202 33.6889C24.8441 33.6687 24.8609 33.6412 24.8682 33.6105L24.9575 33.1638L24.975 33.0768L25.0815 32.5437C25.0849 32.5302 25.0851 32.5161 25.0822 32.5024C25.0793 32.4888 25.0733 32.4761 25.0646 32.4653C25.056 32.4545 25.045 32.4459 25.0326 32.4402C25.0201 32.4345 25.0065 32.4319 24.9929 32.4326H23.008C22.2183 32.4326 21.9839 32.2182 22.0704 31.5872H25.2434L25.2431 31.5875L25.2452 31.5872C25.2703 31.5862 25.2946 31.5778 25.3151 31.5629C25.3357 31.548 25.3515 31.5274 25.3608 31.5035L25.3684 31.4753L25.3681 31.4756C25.8392 29.658 25.7041 28.4339 23.6859 28.4336ZM13.6014 30.3891L13.5713 30.4978L13.3317 31.3666L13.0921 32.2349C13.0822 32.2656 13.0634 32.2925 13.0382 32.312C13.013 32.3315 12.9826 32.3427 12.951 32.3441H11.683C10.7211 32.3441 10.4867 31.5745 10.7211 30.4396C10.9552 29.2788 11.4143 28.5572 12.3612 28.4841C13.6552 28.3842 13.914 29.3149 13.6014 30.3891ZM14.4714 32.2774C14.4714 32.2774 15.0693 30.7923 15.2049 29.9349C15.3902 28.7871 14.8281 27.1218 12.6574 27.1218C10.4992 27.1218 9.56165 28.7113 9.20411 30.4396C8.84657 32.1804 9.31506 33.7067 11.4611 33.6942L13.1542 33.6878L14.7364 33.682C14.7678 33.6804 14.7979 33.669 14.8227 33.6493C14.8475 33.6296 14.8658 33.6026 14.8752 33.572L15.1509 32.4967C15.1662 32.4361 15.129 32.3866 15.068 32.3861L14.8037 32.3845L14.5394 32.3829C14.4877 32.3827 14.4581 32.3481 14.4643 32.3027L14.4714 32.2774ZM25.1561 31.2832C25.1561 31.293 25.1542 31.3026 25.1506 31.3117C25.1469 31.3207 25.1416 31.3289 25.1348 31.3358C25.1281 31.3428 25.1201 31.3483 25.1113 31.352C25.1025 31.3558 25.093 31.3577 25.0834 31.3577C25.0739 31.3577 25.0644 31.3558 25.0556 31.3521C25.0468 31.3484 25.0387 31.3429 25.032 31.336C25.0252 31.3291 25.0198 31.3209 25.0161 31.3119C25.0125 31.3029 25.0106 31.2932 25.0106 31.2834C25.0105 31.2637 25.0182 31.2448 25.0318 31.2308C25.0454 31.2168 25.0639 31.2089 25.0832 31.2089C25.1025 31.2089 25.121 31.2167 25.1347 31.2306C25.1483 31.2445 25.156 31.2634 25.1561 31.2832Z" fill="black"/>
</svg>
