<svg width="143" height="38" viewBox="0 0 143 38" fill="none" xmlns="http://www.w3.org/2000/svg">
<path d="M55.25 11.7H44.6V17.19H53.72V21.09H44.6V30.54H40.04V7.8H55.25V11.7ZM62.6137 26.64H72.2437V30.54H58.0537V7.8H62.6137V26.64ZM83.7166 26.82C85.8566 26.82 87.5466 26.14 88.7866 24.78C90.0466 23.4 90.6766 21.53 90.6766 19.17C90.6766 16.81 90.0466 14.95 88.7866 13.59C87.5466 12.21 85.8566 11.52 83.7166 11.52C81.5766 11.52 79.8766 12.21 78.6166 13.59C77.3766 14.95 76.7566 16.81 76.7566 19.17C76.7566 21.53 77.3766 23.4 78.6166 24.78C79.8766 26.14 81.5766 26.82 83.7166 26.82ZM83.7166 7.56C85.9366 7.56 87.9166 8.06 89.6566 9.06C91.4166 10.04 92.7866 11.41 93.7666 13.17C94.7466 14.93 95.2366 16.93 95.2366 19.17C95.2366 21.41 94.7466 23.41 93.7666 25.17C92.7866 26.93 91.4166 28.31 89.6566 29.31C87.9166 30.29 85.9366 30.78 83.7166 30.78C81.4966 30.78 79.5066 30.29 77.7466 29.31C76.0066 28.31 74.6466 26.93 73.6666 25.17C72.6866 23.41 72.1966 21.41 72.1966 19.17C72.1966 16.93 72.6866 14.93 73.6666 13.17C74.6466 11.41 76.0066 10.04 77.7466 9.06C79.5066 8.06 81.4966 7.56 83.7166 7.56ZM116.887 30.54H111.727L102.097 15.39V30.54H97.5373V7.8H102.697L112.327 22.98V7.8H116.887V30.54ZM141.283 30.54H136.423L134.383 24.84H126.133L124.033 30.54H119.173L127.573 7.8H133.093L141.283 30.54ZM132.973 20.94L130.333 13.47L127.573 20.94H132.973Z" fill="black"/>
<path d="M0 13.7222C1.5 13.7222 4.0593 12.5991 4.2181 9C4.2181 10.5741 5.07661 13.7222 8.51064 13.7222" stroke="black" stroke-width="3"/>
<path d="M0 21.2218C1.5 21.2218 4.0593 20.1647 4.2181 16.7773C4.2181 18.2588 5.07661 21.2218 8.51064 21.2218" stroke="black" stroke-width="3"/>
<path d="M0 28.9996C1.5 28.9996 4.0593 27.8764 4.2181 24.2773C4.2181 25.8514 5.07661 28.9996 8.51064 28.9996" stroke="black" stroke-width="3"/>
<path d="M8.51172 13.7222C10.001 13.7222 12.4442 12.5991 12.598 9C12.598 10.5741 13.4297 13.7222 16.7564 13.7222" stroke="black" stroke-width="3"/>
<path d="M8.51172 21.2218C10.001 21.2218 12.4442 20.1647 12.598 16.7773C12.598 18.2588 13.4297 21.2218 16.7564 21.2218" stroke="black" stroke-width="3"/>
<path d="M8.51172 28.9996C10.001 28.9996 12.4442 27.8764 12.598 24.2773C12.598 25.8514 13.4297 28.9996 16.7564 28.9996" stroke="black" stroke-width="3"/>
<path d="M16.7539 13.7222C17.9985 13.7222 20.6864 12.5991 20.8402 9C20.8402 10.5741 21.6719 13.7222 24.9986 13.7222" stroke="black" stroke-width="3"/>
<path d="M16.7539 21.2218C17.9985 21.2218 20.6864 20.1647 20.8402 16.7773C20.8402 18.2588 21.6719 21.2218 24.9986 21.2218" stroke="black" stroke-width="3"/>
<path d="M16.7539 28.9996C17.9985 28.9996 20.6864 27.8764 20.8402 24.2773C20.8402 25.8514 21.6719 28.9996 24.9986 28.9996" stroke="black" stroke-width="3"/>
<path d="M30.2383 9.25V6.23828H33.25V3.74805H30.2383V0.75H27.7617V3.74805H24.75V6.23828H27.7617V9.25H30.2383Z" fill="black" stroke="black" stroke-width="0.5"/>
</svg>
