<svg width="40" height="40" viewBox="0 0 40 40" fill="none" xmlns="http://www.w3.org/2000/svg">
<path fill-rule="evenodd" clip-rule="evenodd" d="M38.25 1.75H1.75V38.25H38.25V1.75ZM0 0V40H40V0H0Z" fill="black"/>
<mask id="mask0_449_3281" style="mask-type:luminance" maskUnits="userSpaceOnUse" x="4" y="4" width="32" height="32">
<path d="M4 4H36V36H4V4Z" fill="white"/>
</mask>
<g mask="url(#mask0_449_3281)">
<path d="M36 19.586C36 17.466 33.3453 15.4567 29.2747 14.2113C30.2147 10.0633 29.7973 6.76198 27.9573 5.70465C27.5114 5.45525 27.0068 5.32958 26.496 5.34065V6.79398C26.796 6.79398 27.0373 6.85398 27.24 6.96465C28.1267 7.47398 28.512 9.40998 28.212 11.902C28.14 12.5153 28.0227 13.1607 27.8787 13.8193C26.5153 13.492 25.1319 13.2546 23.7373 13.1087C22.906 11.9627 21.9996 10.8732 21.024 9.84732C23.1507 7.87132 25.1467 6.78865 26.504 6.78865V5.33398C24.7093 5.33398 22.3613 6.61265 19.9867 8.82998C17.6133 6.62732 15.264 5.36065 13.4707 5.36065V6.81398C14.8213 6.81398 16.824 7.89132 18.9507 9.85398C18.0373 10.814 17.124 11.902 16.256 13.1087C14.8585 13.2525 13.4726 13.4921 12.108 13.826C11.9587 13.1735 11.8453 12.5433 11.768 11.9353C11.4613 9.44198 11.84 7.50598 12.7213 6.99132C12.916 6.87398 13.1707 6.82065 13.4707 6.82065V5.36732C12.924 5.36732 12.4267 5.48465 11.9973 5.73132C10.164 6.78865 9.75333 10.082 10.6987 14.218C6.64133 15.4713 4 17.4727 4 19.586C4 21.706 6.65467 23.7153 10.7253 24.9593C9.78533 29.1087 10.2027 32.41 12.0427 33.466C12.4667 33.714 12.9627 33.8313 13.5093 33.8313C15.304 33.8313 17.652 32.5526 20.0267 30.3353C22.4 32.5393 24.748 33.8046 26.5427 33.8046C27.0573 33.8143 27.5655 33.6883 28.016 33.4393C29.8493 32.3833 30.26 29.09 29.3147 24.954C33.3587 23.7087 36 21.6993 36 19.586ZM27.5067 15.2353C27.2534 16.1071 26.9597 16.9667 26.6267 17.8113C26.0825 16.7505 25.4839 15.7185 24.8333 14.7193C25.7613 14.8553 26.6529 15.0273 27.508 15.2353M24.5213 22.182C24.0329 23.0346 23.5084 23.866 22.9493 24.674C20.9923 24.8462 19.0241 24.8484 17.0667 24.6807C15.9442 23.0767 14.9623 21.3789 14.132 19.606C14.9604 17.8286 15.9381 16.1247 17.0547 14.5127C19.0112 14.3401 20.979 14.3374 22.936 14.5047C23.4782 15.2824 24.0044 16.1091 24.5147 16.9847C25.0098 17.8389 25.4622 18.7038 25.872 19.5793C25.4573 20.4649 25.0067 21.3331 24.5213 22.182ZM26.6267 21.334C26.9787 22.2087 27.28 23.082 27.5267 23.93C26.6733 24.1393 25.772 24.3153 24.84 24.4513C25.4871 23.4426 26.0834 22.4022 26.6267 21.334ZM20.0133 28.294C19.4053 27.6664 18.8009 26.9704 18.2 26.206C18.7867 26.2326 19.3867 26.2526 19.9933 26.2526C20.6076 26.2535 21.212 26.238 21.8067 26.206C21.22 26.97 20.6133 27.6673 20.0133 28.294ZM15.16 24.4513C14.261 24.3213 13.3684 24.1495 12.4853 23.9366C12.7267 23.0953 13.0267 22.2273 13.3653 21.3607C13.6333 21.8807 13.9147 22.4033 14.2213 22.926C14.528 23.4478 14.8409 23.9562 15.16 24.4513ZM19.98 10.878C20.588 11.5055 21.1924 12.2015 21.7933 12.966C21.2067 12.9393 20.6067 12.9193 20 12.9193C19.3858 12.9184 18.7813 12.934 18.1867 12.966C18.7733 12.202 19.38 11.5047 19.98 10.878ZM15.1533 14.7207C14.5065 15.7272 13.9102 16.7654 13.3667 17.8313C13.0244 16.9812 12.724 16.1149 12.4667 15.2353C13.32 15.0326 14.2213 14.8567 15.1533 14.7207ZM9.25067 22.886C6.94133 21.902 5.448 20.61 5.448 19.586C5.448 18.562 6.94133 17.2633 9.25067 16.286C9.81067 16.0447 10.424 15.8287 11.0573 15.6273C11.4293 16.9047 11.9187 18.2353 12.524 19.5993C11.9518 20.882 11.4685 22.2024 11.0773 23.5513C10.458 23.3593 9.84841 23.1372 9.25067 22.886ZM12.76 32.206C11.8733 31.6993 11.488 29.7606 11.788 27.27C11.86 26.6566 11.9773 26.01 12.1213 25.3513C13.3987 25.6646 14.7947 25.906 16.2627 26.0633C17.094 27.2093 18.0004 28.2988 18.976 29.3246C16.8493 31.3006 14.8533 32.3833 13.496 32.3833C13.2401 32.3843 12.9877 32.324 12.76 32.2073M28.232 27.238C28.5387 29.73 28.16 31.6673 27.2787 32.182C27.084 32.2993 26.8293 32.3513 26.5293 32.3513C25.1787 32.3513 23.176 31.2753 21.0493 29.3113C22.0213 28.2901 22.9216 27.2031 23.744 26.058C25.1415 25.9142 26.5274 25.6745 27.892 25.3406C28.044 25.9984 28.1573 26.6309 28.232 27.238ZM30.7427 22.8873C30.1827 23.1287 29.5693 23.3447 28.936 23.546C28.5372 22.1904 28.0472 20.8634 27.4693 19.574C28.0693 18.218 28.5507 16.894 28.916 15.622C29.5631 15.8238 30.1742 16.0455 30.7493 16.2873C33.0587 17.2713 34.552 18.5633 34.552 19.5873C34.5453 20.6113 33.052 21.91 30.7427 22.8873Z" fill="black"/>
<path d="M19.9931 22.5662C20.7838 22.5662 21.5421 22.2521 22.1012 21.693C22.6603 21.1339 22.9744 20.3755 22.9744 19.5848C22.9744 18.7942 22.6603 18.0358 22.1012 17.4767C21.5421 16.9176 20.7838 16.6035 19.9931 16.6035C19.2024 16.6035 18.444 16.9176 17.8849 17.4767C17.3258 18.0358 17.0117 18.7942 17.0117 19.5848C17.0117 20.3755 17.3258 21.1339 17.8849 21.693C18.444 22.2521 19.2024 22.5662 19.9931 22.5662Z" fill="black"/>
</g>
</svg>
