<svg width="500" height="915" viewBox="0 0 500 915" fill="none" xmlns="http://www.w3.org/2000/svg">
<path d="M287.75 52.25H318.5V138.75C318.5 151.083 318.083 163.417 317.25 175.75C316.583 187.917 315 199.917 312.5 211.75C310 223.583 306.25 235 301.25 246C296.417 257 289.833 267.25 281.5 276.75C279.667 274.417 277.167 271.833 274 269C271 266.333 267.833 263.667 264.5 261C261.167 258.5 258.25 256.5 255.75 255C265.417 244.167 272.5 232.417 277 219.75C281.5 206.917 284.417 193.667 285.75 180C287.083 166.167 287.75 152.417 287.75 138.75V52.25ZM364.25 63H395V250.25H364.25V63ZM440.75 51.75H472.25V273.75H440.75V51.75Z" fill="black"/>
<rect x="440.699" y="130" width="31.6" height="748" fill="black"/>
<path d="M100.5 74.75H232.25V106.5H100.5V74.75ZM86.75 222.25H242.25V254.25H86.75V222.25ZM41.75 108L71.25 78.25L71.75 78.75V269H41.75V108ZM66.5 35.5L96.25 45.25C90.5833 59.75 83.75 74.3333 75.75 89C67.9167 103.667 59.4167 117.417 50.25 130.25C41.0833 143.083 31.5833 154.333 21.75 164C20.75 161.5 19.1667 158.25 17 154.25C15 150.25 12.75 146.25 10.25 142.25C7.91667 138.083 5.83333 134.75 4 132.25C12.3333 124.583 20.3333 115.583 28 105.25C35.8333 94.9167 43 83.8333 49.5 72C56.1667 60.1667 61.8333 48 66.5 35.5Z" fill="black"/>
<path d="M109.25 496.5H138.5V560.75H109.25V496.5ZM57 397.25H193V417.5H57V397.25ZM80 446.5V459.75H169.25V446.5H80ZM52.75 427H198.25V479H52.75V427ZM35.5 488.5H215.5V580.75H185.75V510.25H64V581H35.5V488.5ZM50.75 522.25H198.75V541H50.75V522.25ZM51 553.75H198.75V575.5H51V553.75ZM108.75 346.5H139.75V380.5H108.75V346.5ZM18.25 361H232.75V415.75H202.75V386.25H46.75V415.75H18.25V361Z" fill="black"/>
<path d="M130.75 717H208V743.25H130.75V717ZM111.25 762.75H207.75V790.25H111.25V762.75ZM198.25 762.75H202L206.75 761.25L228.5 766.5C226.167 774.167 223.583 782.5 220.75 791.5C217.917 800.333 214.917 809.417 211.75 818.75C208.583 828.083 205.333 837.333 202 846.5C198.833 855.667 195.75 864.417 192.75 872.75L163 866.5C166.333 858.333 169.667 849.583 173 840.25C176.333 830.917 179.583 821.667 182.75 812.5C185.917 803.333 188.833 794.75 191.5 786.75C194.333 778.75 196.583 771.833 198.25 766V762.75ZM167.75 667.75C163.583 675.75 158.333 684.25 152 693.25C145.667 702.25 138.583 711 130.75 719.5C123.083 727.833 115 735.167 106.5 741.5C104.833 737.667 102.5 733.333 99.5 728.5C96.6667 723.667 93.9167 719.583 91.25 716.25C99.75 710.083 107.917 702.5 115.75 693.5C123.75 684.5 131 675.167 137.5 665.5C144.167 655.667 149.417 646.417 153.25 637.75H180.5C185.833 647.417 192.083 657.167 199.25 667C206.417 676.833 214 685.833 222 694C230.167 702.167 238.333 708.833 246.5 714C243.5 717.667 240.5 722 237.5 727C234.667 731.833 232.083 736.5 229.75 741C221.917 735 214.083 727.833 206.25 719.5C198.417 711.167 191.167 702.5 184.5 693.5C177.833 684.333 172.25 675.75 167.75 667.75ZM39.75 769.5L68 735.75V872.5H39.75V769.5ZM11.5 682.25H80.5V709H11.5V682.25ZM39.5 638.75H67.75V697.75H39.5V638.75ZM64 741C65.8333 742.833 68.5 745.833 72 750C75.6667 754.167 79.5 758.75 83.5 763.75C87.5 768.583 91.1667 773.167 94.5 777.5C97.8333 781.667 100.25 784.667 101.75 786.5L84.5 806.25C82.6667 802.583 80.1667 798.417 77 793.75C74 788.917 70.6667 783.917 67 778.75C63.5 773.583 60.0833 768.833 56.75 764.5C53.5833 760 50.9167 756.333 48.75 753.5L64 741ZM70.5 682.25H76L81 681L96.75 691.25C91.5833 707.25 84.75 722.917 76.25 738.25C67.9167 753.583 58.75 767.667 48.75 780.5C38.75 793.167 28.5833 803.833 18.25 812.5C17.4167 809.833 16.1667 806.75 14.5 803.25C12.8333 799.583 11.0833 796.083 9.25 792.75C7.41667 789.417 5.75 786.833 4.25 785C13.4167 778 22.3333 769.25 31 758.75C39.8333 748.083 47.6667 736.667 54.5 724.5C61.3333 712.167 66.6667 699.917 70.5 687.75V682.25ZM92.25 732.75L109.75 745.75C105.583 751.083 101.417 756.417 97.25 761.75C93.0833 767.083 89.1667 771.667 85.5 775.5L71.5 764.5C73.8333 761.667 76.25 758.417 78.75 754.75C81.25 751.083 83.6667 747.333 86 743.5C88.5 739.5 90.5833 735.917 92.25 732.75Z" fill="black"/>
</svg>
