<svg width="25" height="23" viewBox="0 0 25 23" fill="none" xmlns="http://www.w3.org/2000/svg">
<path d="M0 5.72222C1.5 5.72222 4.0593 4.5991 4.2181 1C4.2181 2.57407 5.07661 5.72222 8.51064 5.72222" stroke="black" stroke-width="3"/>
<path d="M0 13.2218C1.5 13.2218 4.0593 12.1647 4.2181 8.77734C4.2181 10.2588 5.07661 13.2218 8.51064 13.2218" stroke="black" stroke-width="3"/>
<path d="M0 20.9996C1.5 20.9996 4.0593 19.8764 4.2181 16.2773C4.2181 17.8514 5.07661 20.9996 8.51064 20.9996" stroke="black" stroke-width="3"/>
<path d="M8.51172 5.72222C10.001 5.72222 12.4442 4.5991 12.598 1C12.598 2.57407 13.4297 5.72222 16.7564 5.72222" stroke="black" stroke-width="3"/>
<path d="M8.51172 13.2218C10.001 13.2218 12.4442 12.1647 12.598 8.77734C12.598 10.2588 13.4297 13.2218 16.7564 13.2218" stroke="black" stroke-width="3"/>
<path d="M8.51172 20.9996C10.001 20.9996 12.4442 19.8764 12.598 16.2773C12.598 17.8514 13.4297 20.9996 16.7564 20.9996" stroke="black" stroke-width="3"/>
<path d="M16.7578 5.72222C18.0024 5.72222 20.6903 4.5991 20.8441 1C20.8441 2.57407 21.6758 5.72222 25.0025 5.72222" stroke="black" stroke-width="3"/>
<path d="M16.7578 13.2218C18.0024 13.2218 20.6903 12.1647 20.8441 8.77734C20.8441 10.2588 21.6758 13.2218 25.0025 13.2218" stroke="black" stroke-width="3"/>
<path d="M16.7578 20.9996C18.0024 20.9996 20.6903 19.8764 20.8441 16.2773C20.8441 17.8514 21.6758 20.9996 25.0025 20.9996" stroke="black" stroke-width="3"/>
</svg>
