<svg width="126" height="98" viewBox="0 0 126 98" fill="none" xmlns="http://www.w3.org/2000/svg">
<path d="M7 14.8176C9.11556 11.8907 13.3484 7.09961 22.1831 7.09961C31.0178 7.09961 34.6056 11.2278 36.7746 14.8176C38.1845 17.1509 41.0732 21.0996 48.8028 21.0996C56.5324 21.0996 59.4507 17.1509 61.0282 14.8176C63.0069 11.8907 68.8489 7.09961 76.6056 7.09961C85.9127 7.09961 90.8028 12.1253 92.7746 14.8176C94.4836 17.1509 99.7111 21.0996 105.789 21.0996C113.203 21.0996 117.685 16.9116 119 14.8176" stroke="black" stroke-width="13" stroke-linecap="round"/>
<path d="M7 49.8176C9.11556 46.8907 13.3484 42.0996 22.1831 42.0996C31.0178 42.0996 34.6056 46.2278 36.7746 49.8176C38.1845 52.1509 41.0732 56.0996 48.8028 56.0996C56.5324 56.0996 59.4507 52.1509 61.0282 49.8176C63.0069 46.8907 68.8489 42.0996 76.6056 42.0996C85.9127 42.0996 90.8028 47.1253 92.7746 49.8176C94.4836 52.1509 99.7111 56.0996 105.789 56.0996C113.203 56.0996 117.685 51.9116 119 49.8176" stroke="black" stroke-width="13" stroke-linecap="round"/>
<path d="M7 84.8176C9.11556 81.8907 13.3484 77.0996 22.1831 77.0996C31.0178 77.0996 34.6056 81.2278 36.7746 84.8176C38.1845 87.1509 41.0732 91.0996 48.8028 91.0996C56.5324 91.0996 59.4507 87.1509 61.0282 84.8176C63.0069 81.8907 68.8489 77.0996 76.6056 77.0996C85.9127 77.0996 90.8028 82.1253 92.7746 84.8176C94.4836 87.1509 99.7111 91.0996 105.789 91.0996C113.203 91.0996 117.685 86.9116 119 84.8176" stroke="black" stroke-width="13" stroke-linecap="round"/>
</svg>
