<svg width="40" height="40" viewBox="0 0 40 40" fill="none" xmlns="http://www.w3.org/2000/svg">
<path d="M39.0996 0.900391V39.0996H0.900391V0.900391H39.0996Z" stroke="black" stroke-width="1.8"/>
<path d="M13.2959 21.092L16.9941 28.7137H20.687L15.4423 18.6363L20.3946 9.06836H17.0063L13.5324 16.5809L10.0291 9.08656H6.41961L11.3678 18.9456L6.25 28.6955H9.72766L13.2959 21.092Z" fill="black"/>
<path fill-rule="evenodd" clip-rule="evenodd" d="M32.8491 27.9127C31.3212 28.6403 29.7204 28.9677 28.1924 28.9677C24.2452 28.9859 21.4258 26.5484 21.4258 21.6007C21.5542 16.5323 24.9314 13.7041 29.6659 14.0882V9.08594H32.9037V25.93C32.9089 27.48 33.042 27.719 32.9726 27.8241C32.9521 27.8552 32.9138 27.8745 32.8491 27.9127ZM29.6652 16.9446V25.9487C26.4693 26.778 24.7023 24.833 24.7175 21.4557C24.7296 17.9921 27.0052 16.1945 29.6652 16.9446Z" fill="black"/>
</svg>
