<svg width="500" height="312" viewBox="0 0 500 312" fill="none" xmlns="http://www.w3.org/2000/svg">
<path d="M140.25 50.25H216V78H140.25V50.25ZM207 50.25H212L217.25 49.5L236.5 53.5C234.167 90.5 229.25 122.833 221.75 150.5C214.417 178.167 204.333 201.75 191.5 221.25C178.833 240.583 163.25 256.667 144.75 269.5C142.417 265.667 139.333 261.333 135.5 256.5C131.667 251.833 128.083 248.167 124.75 245.5C140.75 235.833 154.5 222.083 166 204.25C177.667 186.25 186.917 164.833 193.75 140C200.583 115.167 205 87.5 207 57V50.25ZM174 80.5C177 104.167 181.333 126.667 187 148C192.667 169.333 200.167 188.417 209.5 205.25C219 221.917 230.917 235.25 245.25 245.25C243.083 246.917 240.583 249.167 237.75 252C235.083 254.833 232.5 257.833 230 261C227.667 264.167 225.75 267 224.25 269.5C208.75 257.167 196 241.833 186 223.5C176 205.167 168 184.25 162 160.75C156.167 137.083 151.417 111.5 147.75 84L174 80.5ZM78.5 46.75H131V66H78.5V46.75ZM45.5 197H106.5V212H45.5V197ZM43.75 101.25H111.75V119H43.75V101.25ZM45.5 219.75H106.5V234.75H45.5V219.75ZM62.75 35.75H90.5V84.5H62.75V35.75ZM31.25 171.25H58.5V269.25H31.25V171.25ZM38.5 114L60.5 120.25C56.3333 126.75 51 133.167 44.5 139.5C38.1667 145.667 31.8333 150.833 25.5 155C23.6667 153 20.9167 150.417 17.25 147.25C13.75 144.083 10.75 141.667 8.25 140C14.4167 136.667 20.1667 132.75 25.5 128.25C30.8333 123.583 35.1667 118.833 38.5 114ZM94.5 124.75L111 112.5C116.667 115.333 122.417 118.917 128.25 123.25C134.25 127.583 138.917 131.5 142.25 135L125.25 149C121.917 145.167 117.333 140.917 111.5 136.25C105.667 131.583 100 127.75 94.5 124.75ZM45.75 171.25H123.75V260.75H45.75V242.75H96.25V189.5H45.75V171.25ZM12.25 73.75H144.25V114H119V93.75H36.25V114H12.25V73.75ZM63 132H77.5V137.25H85.5V144.75C78.6667 152.917 70.0833 161.75 59.75 171.25C49.4167 180.583 36.5833 189.667 21.25 198.5C19.75 195.667 17.3333 192.333 14 188.5C10.8333 184.667 8 181.75 5.5 179.75C19 172.917 30.5833 165.25 40.25 156.75C50.0833 148.25 57.6667 140 63 132ZM70 132H89C95.3333 136.167 101.917 140.917 108.75 146.25C115.583 151.417 122 156.667 128 162C134 167.167 139.083 172 143.25 176.5L124.5 195.75C121 191.583 116.5 186.75 111 181.25C105.5 175.75 99.5833 170.333 93.25 165C87.0833 159.667 81 155.167 75 151.5H70V132Z" fill="black"/>
<path d="M265.25 63.5H484.75V90.5H265.25V63.5ZM285.25 167.5H465.5V193.5H285.25V167.5ZM324.25 121.75H424.75V147.25H324.25V121.75ZM414 76C419.333 84.6667 426.167 93.0833 434.5 101.25C442.833 109.25 452.167 116.417 462.5 122.75C473 129.083 483.75 134.25 494.75 138.25C492.583 140.25 490.167 142.75 487.5 145.75C484.833 148.583 482.333 151.583 480 154.75C477.667 157.75 475.75 160.5 474.25 163C462.75 158 451.667 151.5 441 143.5C430.5 135.5 420.833 126.583 412 116.75C403.167 106.75 395.5 96.25 389 85.25L414 76ZM360 183.5H390.5V241C390.5 247.833 389.583 253.083 387.75 256.75C385.917 260.417 382.417 263.25 377.25 265.25C372.083 267.25 366.083 268.417 359.25 268.75C352.583 269.25 344.75 269.5 335.75 269.5C334.917 265.5 333.417 261 331.25 256C329.25 251.167 327.25 247 325.25 243.5C329.083 243.667 333.083 243.833 337.25 244C341.417 244.167 345.083 244.25 348.25 244.25C351.583 244.083 353.833 244 355 244C357 244 358.333 243.75 359 243.25C359.667 242.583 360 241.5 360 240V183.5ZM306 202.75L334.75 211.5C328.75 221.167 321.333 230.667 312.5 240C303.833 249.333 295.25 257.083 286.75 263.25C284.917 261.583 282.583 259.5 279.75 257C276.917 254.667 273.917 252.333 270.75 250C267.75 247.667 265.083 245.833 262.75 244.5C271.25 239.333 279.333 233.083 287 225.75C294.833 218.25 301.167 210.583 306 202.75ZM409.5 215.75L433.5 202C438.833 206.5 444.5 211.5 450.5 217C456.5 222.5 462.167 227.917 467.5 233.25C472.833 238.583 477.167 243.5 480.5 248L454.25 263.5C451.417 259.167 447.417 254.167 442.25 248.5C437.25 243 431.833 237.333 426 231.5C420.333 225.667 414.833 220.417 409.5 215.75ZM350.5 34.25L383.25 38.75C377.75 55.4167 370.333 71.5 361 87C351.667 102.5 339.917 116.833 325.75 130C311.583 143 294.417 154.583 274.25 164.75C272.917 162.25 271 159.5 268.5 156.5C266.167 153.5 263.667 150.667 261 148C258.5 145.167 256.083 143 253.75 141.5C272.917 133 289 123.083 302 111.75C315 100.25 325.417 87.9167 333.25 74.75C341.083 61.5833 346.833 48.0833 350.5 34.25Z" fill="black"/>
</svg>
